<mxfile host="app.diagrams.net" modified="2023-09-21T15:05:20.355Z" agent="Mozilla/5.0 (X11; Linux x86_64; rv:109.0) Gecko/20100101 Firefox/114.0" version="21.7.5" etag="9xvttQYvYCi6Scr1Q3UT" type="github">
  <diagram name="PÃ¡gina-1" id="pS9VnVVP3erK-5d3hYcQ">
    <mxGraphModel>
      <root>
        <mxCell id="0" />
        <mxCell id="1" parent="0" />
      </root>
    </mxGraphModel>
  </diagram>
</mxfile>
